M48
; DRILL file {KiCad (6.0.6)} date Wed Aug 17 10:37:03 2022
; FORMAT={-:-/ absolute / inch / decimal}
; #@! TF.CreationDate,2022-08-17T10:37:03+09:00
; #@! TF.GenerationSoftware,Kicad,Pcbnew,(6.0.6)
; #@! TF.FileFunction,Plated,1,2,PTH
FMAT,2
INCH
; #@! TA.AperFunction,Plated,PTH,ViaDrill
T1C0.0157
; #@! TA.AperFunction,Plated,PTH,ComponentDrill
T2C0.0335
; #@! TA.AperFunction,Plated,PTH,ComponentDrill
T3C0.0394
; #@! TA.AperFunction,Plated,PTH,ComponentDrill
T4C0.0402
; #@! TA.AperFunction,Plated,PTH,ComponentDrill
T5C0.0669
%
G90
G05
T1
X4.1339Y-4.5276
X4.1339Y-4.7539
X4.8381Y-3.57
X4.9431Y-3.775
X5.1431Y-4.955
X5.1431Y-5.155
X5.2331Y-5.285
X5.3031Y-5.51
X5.4931Y-5.54
X5.5581Y-4.675
X5.5981Y-4.4
X5.5981Y-4.12
X5.66Y-3.5364
X5.6831Y-5.515
X5.6881Y-4.565
X5.7681Y-5.43
X5.9031Y-4.405
X5.9031Y-4.125
T2
X4.1531Y-4.855
X4.2516Y-4.855
X5.7339Y-4.7306
X5.76Y-3.1047
X5.76Y-3.2031
X5.76Y-3.3016
X5.76Y-3.4
X5.7681Y-5.0047
X5.7681Y-5.1031
X5.7681Y-5.2015
X5.7681Y-5.3
X5.8324Y-4.7306
T3
X4.2107Y-3.7934
X4.2107Y-3.8934
X4.2107Y-3.9934
X4.2107Y-4.0934
X4.2107Y-4.1934
X4.2107Y-4.2934
X4.2107Y-4.3934
X4.8931Y-3.8826
X4.8931Y-4.7826
X4.9931Y-3.8826
X4.9931Y-4.7826
X5.0931Y-3.8826
X5.0931Y-4.7826
X5.1931Y-3.8826
X5.1931Y-4.7826
X5.7354Y-3.687
X5.7354Y-3.787
X5.7354Y-3.887
X5.7354Y-3.987
X5.7354Y-4.087
X5.7354Y-4.187
X5.7354Y-4.287
X5.7354Y-4.387
X6.3354Y-3.687
X6.3354Y-3.787
X6.3354Y-3.887
X6.3354Y-3.987
X6.3354Y-4.087
X6.3354Y-4.187
X6.3354Y-4.287
X6.3354Y-4.387
T4
X4.6881Y-3.4603
X4.6881Y-3.5603
X4.6881Y-3.6603
X4.6881Y-3.7603
X4.6881Y-3.8603
X4.6881Y-3.9603
X4.6881Y-4.0603
X4.6881Y-4.1603
X4.6881Y-4.2603
X4.6881Y-4.3603
X4.6881Y-4.4603
X4.6881Y-4.5603
X4.6881Y-4.6603
X4.6881Y-4.7603
X4.6881Y-4.8603
X4.6881Y-4.9603
X4.6881Y-5.0603
X4.6881Y-5.1603
X4.6881Y-5.2603
X4.6881Y-5.3603
X4.9381Y-5.3513
X5.0381Y-5.3513
X5.1381Y-5.3513
X5.3881Y-3.4603
X5.3881Y-3.5603
X5.3881Y-3.6603
X5.3881Y-3.7603
X5.3881Y-3.8603
X5.3881Y-3.9603
X5.3881Y-4.0603
X5.3881Y-4.1603
X5.3881Y-4.2603
X5.3881Y-4.3603
X5.3881Y-4.4603
X5.3881Y-4.5603
X5.3881Y-4.6603
X5.3881Y-4.7603
X5.3881Y-4.8603
X5.3881Y-4.9603
X5.3881Y-5.0603
X5.3881Y-5.1603
X5.3881Y-5.2603
X5.3881Y-5.3603
T5
X4.8841Y-3.0906
X5.04Y-3.0906
X5.1959Y-3.0906
T0
M30
