%TF.GenerationSoftware,KiCad,Pcbnew,(6.0.6)*%
%TF.CreationDate,2022-08-17T10:37:05+09:00*%
%TF.ProjectId,0726,30373236-2e6b-4696-9361-645f70636258,rev?*%
%TF.SameCoordinates,Original*%
%TF.FileFunction,Legend,Bot*%
%TF.FilePolarity,Positive*%
%FSLAX46Y46*%
G04 Gerber Fmt 4.6, Leading zero omitted, Abs format (unit mm)*
G04 Created by KiCad (PCBNEW (6.0.6)) date 2022-08-17 10:37:05*
%MOMM*%
%LPD*%
G01*
G04 APERTURE LIST*
%ADD10C,0.150000*%
%ADD11C,0.220000*%
G04 APERTURE END LIST*
D10*
X134059276Y-128539142D02*
X133871776Y-129439142D01*
X133459276Y-128539142D01*
X132923562Y-129396285D02*
X133014633Y-129439142D01*
X133186062Y-129439142D01*
X133266419Y-129396285D01*
X133298562Y-129310571D01*
X133255705Y-128967714D01*
X133202133Y-128882000D01*
X133111062Y-128839142D01*
X132939633Y-128839142D01*
X132859276Y-128882000D01*
X132827133Y-128967714D01*
X132837848Y-129053428D01*
X133277133Y-129139142D01*
X132500348Y-129439142D02*
X132425348Y-128839142D01*
X132446776Y-129010571D02*
X132393205Y-128924857D01*
X132344991Y-128882000D01*
X132253919Y-128839142D01*
X132168205Y-128839142D01*
X130786062Y-129439142D02*
X131300348Y-129439142D01*
X131043205Y-129439142D02*
X130930705Y-128539142D01*
X131032491Y-128667714D01*
X131128919Y-128753428D01*
X131219991Y-128796285D01*
X130389633Y-129353428D02*
X130352133Y-129396285D01*
X130400348Y-129439142D01*
X130437848Y-129396285D01*
X130389633Y-129353428D01*
X130400348Y-129439142D01*
X129687848Y-128539142D02*
X129602133Y-128539142D01*
X129521776Y-128582000D01*
X129484276Y-128624857D01*
X129452133Y-128710571D01*
X129430705Y-128882000D01*
X129457491Y-129096285D01*
X129521776Y-129267714D01*
X129575348Y-129353428D01*
X129623562Y-129396285D01*
X129714633Y-129439142D01*
X129800348Y-129439142D01*
X129880705Y-129396285D01*
X129918205Y-129353428D01*
X129950348Y-129267714D01*
X129971776Y-129096285D01*
X129944991Y-128882000D01*
X129880705Y-128710571D01*
X129827133Y-128624857D01*
X129778919Y-128582000D01*
X129687848Y-128539142D01*
X128369991Y-128624857D02*
X128321776Y-128582000D01*
X128230705Y-128539142D01*
X128016419Y-128539142D01*
X127936062Y-128582000D01*
X127898562Y-128624857D01*
X127866419Y-128710571D01*
X127877133Y-128796285D01*
X127936062Y-128924857D01*
X128514633Y-129439142D01*
X127957491Y-129439142D01*
X127287848Y-128539142D02*
X127202133Y-128539142D01*
X127121776Y-128582000D01*
X127084276Y-128624857D01*
X127052133Y-128710571D01*
X127030705Y-128882000D01*
X127057491Y-129096285D01*
X127121776Y-129267714D01*
X127175348Y-129353428D01*
X127223562Y-129396285D01*
X127314633Y-129439142D01*
X127400348Y-129439142D01*
X127480705Y-129396285D01*
X127518205Y-129353428D01*
X127550348Y-129267714D01*
X127571776Y-129096285D01*
X127544991Y-128882000D01*
X127480705Y-128710571D01*
X127427133Y-128624857D01*
X127378919Y-128582000D01*
X127287848Y-128539142D01*
X126655705Y-128624857D02*
X126607491Y-128582000D01*
X126516419Y-128539142D01*
X126302133Y-128539142D01*
X126221776Y-128582000D01*
X126184276Y-128624857D01*
X126152133Y-128710571D01*
X126162848Y-128796285D01*
X126221776Y-128924857D01*
X126800348Y-129439142D01*
X126243205Y-129439142D01*
X125798562Y-128624857D02*
X125750348Y-128582000D01*
X125659276Y-128539142D01*
X125444991Y-128539142D01*
X125364633Y-128582000D01*
X125327133Y-128624857D01*
X125294991Y-128710571D01*
X125305705Y-128796285D01*
X125364633Y-128924857D01*
X125943205Y-129439142D01*
X125386062Y-129439142D01*
X124989633Y-129353428D02*
X124952133Y-129396285D01*
X125000348Y-129439142D01*
X125037848Y-129396285D01*
X124989633Y-129353428D01*
X125000348Y-129439142D01*
X124287848Y-128539142D02*
X124202133Y-128539142D01*
X124121776Y-128582000D01*
X124084276Y-128624857D01*
X124052133Y-128710571D01*
X124030705Y-128882000D01*
X124057491Y-129096285D01*
X124121776Y-129267714D01*
X124175348Y-129353428D01*
X124223562Y-129396285D01*
X124314633Y-129439142D01*
X124400348Y-129439142D01*
X124480705Y-129396285D01*
X124518205Y-129353428D01*
X124550348Y-129267714D01*
X124571776Y-129096285D01*
X124544991Y-128882000D01*
X124480705Y-128710571D01*
X124427133Y-128624857D01*
X124378919Y-128582000D01*
X124287848Y-128539142D01*
X123521776Y-128924857D02*
X123602133Y-128882000D01*
X123639633Y-128839142D01*
X123671776Y-128753428D01*
X123666419Y-128710571D01*
X123612848Y-128624857D01*
X123564633Y-128582000D01*
X123473562Y-128539142D01*
X123302133Y-128539142D01*
X123221776Y-128582000D01*
X123184276Y-128624857D01*
X123152133Y-128710571D01*
X123157491Y-128753428D01*
X123211062Y-128839142D01*
X123259276Y-128882000D01*
X123350348Y-128924857D01*
X123521776Y-128924857D01*
X123612848Y-128967714D01*
X123661062Y-129010571D01*
X123714633Y-129096285D01*
X123736062Y-129267714D01*
X123703919Y-129353428D01*
X123666419Y-129396285D01*
X123586062Y-129439142D01*
X123414633Y-129439142D01*
X123323562Y-129396285D01*
X123275348Y-129353428D01*
X123221776Y-129267714D01*
X123200348Y-129096285D01*
X123232491Y-129010571D01*
X123269991Y-128967714D01*
X123350348Y-128924857D01*
X122846776Y-129353428D02*
X122809276Y-129396285D01*
X122857491Y-129439142D01*
X122894991Y-129396285D01*
X122846776Y-129353428D01*
X122857491Y-129439142D01*
X121957491Y-129439142D02*
X122471776Y-129439142D01*
X122214633Y-129439142D02*
X122102133Y-128539142D01*
X122203919Y-128667714D01*
X122300348Y-128753428D01*
X122391419Y-128796285D01*
X121073562Y-128539142D02*
X121244991Y-128539142D01*
X121336062Y-128582000D01*
X121384276Y-128624857D01*
X121486062Y-128753428D01*
X121550348Y-128924857D01*
X121593205Y-129267714D01*
X121561062Y-129353428D01*
X121523562Y-129396285D01*
X121443205Y-129439142D01*
X121271776Y-129439142D01*
X121180705Y-129396285D01*
X121132491Y-129353428D01*
X121078919Y-129267714D01*
X121052133Y-129053428D01*
X121084276Y-128967714D01*
X121121776Y-128924857D01*
X121202133Y-128882000D01*
X121373562Y-128882000D01*
X121464633Y-128924857D01*
X121512848Y-128967714D01*
X121566419Y-129053428D01*
D11*
X133578139Y-126481619D02*
X134101949Y-126481619D01*
X133964449Y-125381619D01*
X133139449Y-125905428D02*
X132772782Y-125905428D01*
X132687663Y-126481619D02*
X133211473Y-126481619D01*
X133073973Y-125381619D01*
X132550163Y-125381619D01*
X132216235Y-126481619D02*
X132078735Y-125381619D01*
X131816830Y-125381619D01*
X131666235Y-125434000D01*
X131574568Y-125538761D01*
X131535282Y-125643523D01*
X131509092Y-125853047D01*
X131528735Y-126010190D01*
X131607306Y-126219714D01*
X131672782Y-126324476D01*
X131790639Y-126429238D01*
X131954330Y-126481619D01*
X132216235Y-126481619D01*
X129636473Y-126376857D02*
X129695401Y-126429238D01*
X129859092Y-126481619D01*
X129963854Y-126481619D01*
X130114449Y-126429238D01*
X130206116Y-126324476D01*
X130245401Y-126219714D01*
X130271592Y-126010190D01*
X130251949Y-125853047D01*
X130173377Y-125643523D01*
X130107901Y-125538761D01*
X129990044Y-125434000D01*
X129826354Y-125381619D01*
X129721592Y-125381619D01*
X129570997Y-125434000D01*
X129525163Y-125486380D01*
X129178139Y-126481619D02*
X129040639Y-125381619D01*
X129106116Y-125905428D02*
X128477544Y-125905428D01*
X128549568Y-126481619D02*
X128412068Y-125381619D01*
X128038854Y-126167333D02*
X127515044Y-126167333D01*
X128182901Y-126481619D02*
X127678735Y-125381619D01*
X127449568Y-126481619D01*
X127082901Y-126481619D02*
X126945401Y-125381619D01*
X126676949Y-126167333D01*
X126212068Y-125381619D01*
X126349568Y-126481619D01*
X125387068Y-125905428D02*
X125236473Y-125957809D01*
X125190639Y-126010190D01*
X125151354Y-126114952D01*
X125170997Y-126272095D01*
X125236473Y-126376857D01*
X125295401Y-126429238D01*
X125406711Y-126481619D01*
X125825758Y-126481619D01*
X125688258Y-125381619D01*
X125321592Y-125381619D01*
X125223377Y-125434000D01*
X125177544Y-125486380D01*
X125138258Y-125591142D01*
X125151354Y-125695904D01*
X125216830Y-125800666D01*
X125275758Y-125853047D01*
X125387068Y-125905428D01*
X125753735Y-125905428D01*
X124653735Y-125905428D02*
X124287068Y-125905428D01*
X124201949Y-126481619D02*
X124725758Y-126481619D01*
X124588258Y-125381619D01*
X124064449Y-125381619D01*
X123101949Y-126481619D02*
X123403139Y-125957809D01*
X123730520Y-126481619D02*
X123593020Y-125381619D01*
X123173973Y-125381619D01*
X123075758Y-125434000D01*
X123029925Y-125486380D01*
X122990639Y-125591142D01*
X123010282Y-125748285D01*
X123075758Y-125853047D01*
X123134687Y-125905428D01*
X123245997Y-125957809D01*
X123665044Y-125957809D01*
D10*
X133787705Y-132015714D02*
X133664491Y-132058571D01*
X133626991Y-132101428D01*
X133594848Y-132187142D01*
X133610919Y-132315714D01*
X133664491Y-132401428D01*
X133712705Y-132444285D01*
X133803776Y-132487142D01*
X134146633Y-132487142D01*
X134034133Y-131587142D01*
X133734133Y-131587142D01*
X133653776Y-131630000D01*
X133616276Y-131672857D01*
X133584133Y-131758571D01*
X133594848Y-131844285D01*
X133648419Y-131930000D01*
X133696633Y-131972857D01*
X133787705Y-132015714D01*
X134087705Y-132015714D01*
X133246633Y-132487142D02*
X133134133Y-131587142D01*
X133187705Y-132015714D02*
X132673419Y-132015714D01*
X132732348Y-132487142D02*
X132619848Y-131587142D01*
X132303776Y-132487142D02*
X132191276Y-131587142D01*
X131971633Y-132230000D01*
X131591276Y-131587142D01*
X131703776Y-132487142D01*
X130075205Y-132487142D02*
X130321633Y-132058571D01*
X130589491Y-132487142D02*
X130476991Y-131587142D01*
X130134133Y-131587142D01*
X130053776Y-131630000D01*
X130016276Y-131672857D01*
X129984133Y-131758571D01*
X130000205Y-131887142D01*
X130053776Y-131972857D01*
X130101991Y-132015714D01*
X130193062Y-132058571D01*
X130535919Y-132058571D01*
X129726991Y-132444285D02*
X129603776Y-132487142D01*
X129389491Y-132487142D01*
X129298419Y-132444285D01*
X129250205Y-132401428D01*
X129196633Y-132315714D01*
X129185919Y-132230000D01*
X129218062Y-132144285D01*
X129255562Y-132101428D01*
X129335919Y-132058571D01*
X129501991Y-132015714D01*
X129582348Y-131972857D01*
X129619848Y-131930000D01*
X129651991Y-131844285D01*
X129641276Y-131758571D01*
X129587705Y-131672857D01*
X129539491Y-131630000D01*
X129448419Y-131587142D01*
X129234133Y-131587142D01*
X129110919Y-131630000D01*
X128253776Y-131630000D02*
X128334133Y-131587142D01*
X128462705Y-131587142D01*
X128596633Y-131630000D01*
X128693062Y-131715714D01*
X128746633Y-131801428D01*
X128810919Y-131972857D01*
X128826991Y-132101428D01*
X128805562Y-132272857D01*
X128773419Y-132358571D01*
X128698419Y-132444285D01*
X128575205Y-132487142D01*
X128489491Y-132487142D01*
X128355562Y-132444285D01*
X128307348Y-132401428D01*
X128269848Y-132101428D01*
X128441276Y-132101428D01*
X126818062Y-132487142D02*
X127246633Y-132487142D01*
X127134133Y-131587142D01*
X125993062Y-132401428D02*
X126041276Y-132444285D01*
X126175205Y-132487142D01*
X126260919Y-132487142D01*
X126384133Y-132444285D01*
X126459133Y-132358571D01*
X126491276Y-132272857D01*
X126512705Y-132101428D01*
X126496633Y-131972857D01*
X126432348Y-131801428D01*
X126378776Y-131715714D01*
X126282348Y-131630000D01*
X126148419Y-131587142D01*
X126062705Y-131587142D01*
X125939491Y-131630000D01*
X125901991Y-131672857D01*
X125618062Y-132487142D02*
X125505562Y-131587142D01*
X125559133Y-132015714D02*
X125044848Y-132015714D01*
X125103776Y-132487142D02*
X124991276Y-131587142D01*
M02*
