M48
; DRILL file {KiCad (6.0.6)} date Tue Aug 16 14:43:34 2022
; FORMAT={-:-/ absolute / inch / decimal}
; #@! TF.CreationDate,2022-08-16T14:43:34+09:00
; #@! TF.GenerationSoftware,Kicad,Pcbnew,(6.0.6)
; #@! TF.FileFunction,Plated,1,2,PTH
FMAT,2
INCH
; #@! TA.AperFunction,Plated,PTH,ViaDrill
T1C0.0157
; #@! TA.AperFunction,Plated,PTH,ComponentDrill
T2C0.0335
; #@! TA.AperFunction,Plated,PTH,ComponentDrill
T3C0.0394
; #@! TA.AperFunction,Plated,PTH,ComponentDrill
T4C0.0402
; #@! TA.AperFunction,Plated,PTH,ComponentDrill
T5C0.0669
%
G90
G05
T1
X4.4Y-4.29
X5.035Y-3.255
X5.14Y-3.46
X5.34Y-4.62
X5.34Y-4.84
X5.42Y-4.97
X5.51Y-5.185
X5.685Y-5.225
X5.755Y-4.36
X5.795Y-3.805
X5.795Y-4.085
X5.88Y-5.2
X5.885Y-4.25
X5.965Y-5.115
X6.1Y-3.81
X6.1Y-4.09
X6.16Y-3.54
X6.37Y-3.52
T2
X4.35Y-4.54
X4.4484Y-4.54
X5.9308Y-4.4156
X5.965Y-4.6897
X5.965Y-4.7881
X5.965Y-4.8866
X5.965Y-4.985
X6.0292Y-4.4156
T3
X4.5729Y-3.4824
X4.5729Y-3.5824
X4.5729Y-3.6824
X4.5729Y-3.7824
X4.5729Y-3.8824
X4.5729Y-3.9824
X4.5729Y-4.0824
X5.09Y-3.5676
X5.09Y-4.4676
X5.19Y-3.5676
X5.19Y-4.4676
X5.29Y-3.5676
X5.29Y-4.4676
X5.39Y-3.5676
X5.39Y-4.4676
X5.9323Y-3.372
X5.9323Y-3.472
X5.9323Y-3.572
X5.9323Y-3.672
X5.9323Y-3.772
X5.9323Y-3.872
X5.9323Y-3.972
X5.9323Y-4.072
X6.5323Y-3.372
X6.5323Y-3.472
X6.5323Y-3.572
X6.5323Y-3.672
X6.5323Y-3.772
X6.5323Y-3.872
X6.5323Y-3.972
X6.5323Y-4.072
T4
X4.885Y-3.1454
X4.885Y-3.2454
X4.885Y-3.3454
X4.885Y-3.4454
X4.885Y-3.5454
X4.885Y-3.6454
X4.885Y-3.7454
X4.885Y-3.8454
X4.885Y-3.9454
X4.885Y-4.0454
X4.885Y-4.1454
X4.885Y-4.2454
X4.885Y-4.3454
X4.885Y-4.4454
X4.885Y-4.5454
X4.885Y-4.6454
X4.885Y-4.7454
X4.885Y-4.8454
X4.885Y-4.9454
X4.885Y-5.0454
X5.135Y-5.0363
X5.235Y-5.0363
X5.335Y-5.0363
X5.585Y-3.1454
X5.585Y-3.2454
X5.585Y-3.3454
X5.585Y-3.4454
X5.585Y-3.5454
X5.585Y-3.6454
X5.585Y-3.7454
X5.585Y-3.8454
X5.585Y-3.9454
X5.585Y-4.0454
X5.585Y-4.1454
X5.585Y-4.2454
X5.585Y-4.3454
X5.585Y-4.4454
X5.585Y-4.5454
X5.585Y-4.6454
X5.585Y-4.7454
X5.585Y-4.8454
X5.585Y-4.9454
X5.585Y-5.0454
T5
X5.2206Y-2.7756
X5.3765Y-2.7756
X5.5324Y-2.7756
T0
M30
