%TF.GenerationSoftware,KiCad,Pcbnew,(6.0.4)*%
%TF.CreationDate,2022-05-12T17:17:44+09:00*%
%TF.ProjectId,0506,30353036-2e6b-4696-9361-645f70636258,rev?*%
%TF.SameCoordinates,Original*%
%TF.FileFunction,Legend,Bot*%
%TF.FilePolarity,Positive*%
%FSLAX46Y46*%
G04 Gerber Fmt 4.6, Leading zero omitted, Abs format (unit mm)*
G04 Created by KiCad (PCBNEW (6.0.4)) date 2022-05-12 17:17:44*
%MOMM*%
%LPD*%
G01*
G04 APERTURE LIST*
%ADD10C,0.150000*%
%ADD11C,0.120000*%
G04 APERTURE END LIST*
D10*
X133861904Y-82050000D02*
X133957142Y-82002380D01*
X134100000Y-82002380D01*
X134242857Y-82050000D01*
X134338095Y-82145238D01*
X134385714Y-82240476D01*
X134433333Y-82430952D01*
X134433333Y-82573809D01*
X134385714Y-82764285D01*
X134338095Y-82859523D01*
X134242857Y-82954761D01*
X134100000Y-83002380D01*
X134004761Y-83002380D01*
X133861904Y-82954761D01*
X133814285Y-82907142D01*
X133814285Y-82573809D01*
X134004761Y-82573809D01*
X133385714Y-83002380D02*
X133385714Y-82002380D01*
X132814285Y-83002380D01*
X132814285Y-82002380D01*
X132338095Y-83002380D02*
X132338095Y-82002380D01*
X132100000Y-82002380D01*
X131957142Y-82050000D01*
X131861904Y-82145238D01*
X131814285Y-82240476D01*
X131766666Y-82430952D01*
X131766666Y-82573809D01*
X131814285Y-82764285D01*
X131861904Y-82859523D01*
X131957142Y-82954761D01*
X132100000Y-83002380D01*
X132338095Y-83002380D01*
X150748904Y-110498000D02*
X150844142Y-110450380D01*
X150987000Y-110450380D01*
X151129857Y-110498000D01*
X151225095Y-110593238D01*
X151272714Y-110688476D01*
X151320333Y-110878952D01*
X151320333Y-111021809D01*
X151272714Y-111212285D01*
X151225095Y-111307523D01*
X151129857Y-111402761D01*
X150987000Y-111450380D01*
X150891761Y-111450380D01*
X150748904Y-111402761D01*
X150701285Y-111355142D01*
X150701285Y-111021809D01*
X150891761Y-111021809D01*
X150272714Y-111450380D02*
X150272714Y-110450380D01*
X149701285Y-111450380D01*
X149701285Y-110450380D01*
X149225095Y-111450380D02*
X149225095Y-110450380D01*
X148987000Y-110450380D01*
X148844142Y-110498000D01*
X148748904Y-110593238D01*
X148701285Y-110688476D01*
X148653666Y-110878952D01*
X148653666Y-111021809D01*
X148701285Y-111212285D01*
X148748904Y-111307523D01*
X148844142Y-111402761D01*
X148987000Y-111450380D01*
X149225095Y-111450380D01*
X147192952Y-88463428D02*
X146431047Y-88463428D01*
X146812000Y-88844380D02*
X146812000Y-88082476D01*
X172380952Y-73952380D02*
X172380952Y-72952380D01*
X172142857Y-72952380D01*
X172000000Y-73000000D01*
X171904761Y-73095238D01*
X171857142Y-73190476D01*
X171809523Y-73380952D01*
X171809523Y-73523809D01*
X171857142Y-73714285D01*
X171904761Y-73809523D01*
X172000000Y-73904761D01*
X172142857Y-73952380D01*
X172380952Y-73952380D01*
X170809523Y-73857142D02*
X170857142Y-73904761D01*
X171000000Y-73952380D01*
X171095238Y-73952380D01*
X171238095Y-73904761D01*
X171333333Y-73809523D01*
X171380952Y-73714285D01*
X171428571Y-73523809D01*
X171428571Y-73380952D01*
X171380952Y-73190476D01*
X171333333Y-73095238D01*
X171238095Y-73000000D01*
X171095238Y-72952380D01*
X171000000Y-72952380D01*
X170857142Y-73000000D01*
X170809523Y-73047619D01*
X170380952Y-73571428D02*
X169619047Y-73571428D01*
X169142857Y-73952380D02*
X169142857Y-72952380D01*
X168904761Y-72952380D01*
X168761904Y-73000000D01*
X168666666Y-73095238D01*
X168619047Y-73190476D01*
X168571428Y-73380952D01*
X168571428Y-73523809D01*
X168619047Y-73714285D01*
X168666666Y-73809523D01*
X168761904Y-73904761D01*
X168904761Y-73952380D01*
X169142857Y-73952380D01*
X167571428Y-73857142D02*
X167619047Y-73904761D01*
X167761904Y-73952380D01*
X167857142Y-73952380D01*
X168000000Y-73904761D01*
X168095238Y-73809523D01*
X168142857Y-73714285D01*
X168190476Y-73523809D01*
X168190476Y-73380952D01*
X168142857Y-73190476D01*
X168095238Y-73095238D01*
X168000000Y-73000000D01*
X167857142Y-72952380D01*
X167761904Y-72952380D01*
X167619047Y-73000000D01*
X167571428Y-73047619D01*
%TO.C,J2*%
X144833333Y-60702380D02*
X144833333Y-61416666D01*
X144880952Y-61559523D01*
X144976190Y-61654761D01*
X145119047Y-61702380D01*
X145214285Y-61702380D01*
X144404761Y-60797619D02*
X144357142Y-60750000D01*
X144261904Y-60702380D01*
X144023809Y-60702380D01*
X143928571Y-60750000D01*
X143880952Y-60797619D01*
X143833333Y-60892857D01*
X143833333Y-60988095D01*
X143880952Y-61130952D01*
X144452380Y-61702380D01*
X143833333Y-61702380D01*
X142380952Y-61702380D02*
X142380952Y-60702380D01*
X142047619Y-61416666D01*
X141714285Y-60702380D01*
X141714285Y-61702380D01*
X141095238Y-61702380D02*
X141190476Y-61654761D01*
X141238095Y-61607142D01*
X141285714Y-61511904D01*
X141285714Y-61226190D01*
X141238095Y-61130952D01*
X141190476Y-61083333D01*
X141095238Y-61035714D01*
X140952380Y-61035714D01*
X140857142Y-61083333D01*
X140809523Y-61130952D01*
X140761904Y-61226190D01*
X140761904Y-61511904D01*
X140809523Y-61607142D01*
X140857142Y-61654761D01*
X140952380Y-61702380D01*
X141095238Y-61702380D01*
X140476190Y-61035714D02*
X140095238Y-61035714D01*
X140333333Y-60702380D02*
X140333333Y-61559523D01*
X140285714Y-61654761D01*
X140190476Y-61702380D01*
X140095238Y-61702380D01*
X139619047Y-61702380D02*
X139714285Y-61654761D01*
X139761904Y-61607142D01*
X139809523Y-61511904D01*
X139809523Y-61226190D01*
X139761904Y-61130952D01*
X139714285Y-61083333D01*
X139619047Y-61035714D01*
X139476190Y-61035714D01*
X139380952Y-61083333D01*
X139333333Y-61130952D01*
X139285714Y-61226190D01*
X139285714Y-61511904D01*
X139333333Y-61607142D01*
X139380952Y-61654761D01*
X139476190Y-61702380D01*
X139619047Y-61702380D01*
X138857142Y-61702380D02*
X138857142Y-61035714D01*
X138857142Y-61226190D02*
X138809523Y-61130952D01*
X138761904Y-61083333D01*
X138666666Y-61035714D01*
X138571428Y-61035714D01*
X138476190Y-61797619D02*
X137714285Y-61797619D01*
X137476190Y-61702380D02*
X137476190Y-60702380D01*
X137238095Y-60702380D01*
X137095238Y-60750000D01*
X137000000Y-60845238D01*
X136952380Y-60940476D01*
X136904761Y-61130952D01*
X136904761Y-61273809D01*
X136952380Y-61464285D01*
X137000000Y-61559523D01*
X137095238Y-61654761D01*
X137238095Y-61702380D01*
X137476190Y-61702380D01*
X136476190Y-61702380D02*
X136476190Y-61035714D01*
X136476190Y-61226190D02*
X136428571Y-61130952D01*
X136380952Y-61083333D01*
X136285714Y-61035714D01*
X136190476Y-61035714D01*
X135857142Y-61702380D02*
X135857142Y-61035714D01*
X135857142Y-60702380D02*
X135904761Y-60750000D01*
X135857142Y-60797619D01*
X135809523Y-60750000D01*
X135857142Y-60702380D01*
X135857142Y-60797619D01*
X135476190Y-61035714D02*
X135238095Y-61702380D01*
X135000000Y-61035714D01*
X134238095Y-61654761D02*
X134333333Y-61702380D01*
X134523809Y-61702380D01*
X134619047Y-61654761D01*
X134666666Y-61559523D01*
X134666666Y-61178571D01*
X134619047Y-61083333D01*
X134523809Y-61035714D01*
X134333333Y-61035714D01*
X134238095Y-61083333D01*
X134190476Y-61178571D01*
X134190476Y-61273809D01*
X134666666Y-61369047D01*
X133761904Y-61702380D02*
X133761904Y-61035714D01*
X133761904Y-61226190D02*
X133714285Y-61130952D01*
X133666666Y-61083333D01*
X133571428Y-61035714D01*
X133476190Y-61035714D01*
X134088571Y-79748571D02*
X133945714Y-79796190D01*
X133898095Y-79843809D01*
X133850476Y-79939047D01*
X133850476Y-80081904D01*
X133898095Y-80177142D01*
X133945714Y-80224761D01*
X134040952Y-80272380D01*
X134421904Y-80272380D01*
X134421904Y-79272380D01*
X134088571Y-79272380D01*
X133993333Y-79320000D01*
X133945714Y-79367619D01*
X133898095Y-79462857D01*
X133898095Y-79558095D01*
X133945714Y-79653333D01*
X133993333Y-79700952D01*
X134088571Y-79748571D01*
X134421904Y-79748571D01*
X133231428Y-79272380D02*
X133040952Y-79272380D01*
X132945714Y-79320000D01*
X132850476Y-79415238D01*
X132802857Y-79605714D01*
X132802857Y-79939047D01*
X132850476Y-80129523D01*
X132945714Y-80224761D01*
X133040952Y-80272380D01*
X133231428Y-80272380D01*
X133326666Y-80224761D01*
X133421904Y-80129523D01*
X133469523Y-79939047D01*
X133469523Y-79605714D01*
X133421904Y-79415238D01*
X133326666Y-79320000D01*
X133231428Y-79272380D01*
X131850476Y-80272380D02*
X132421904Y-80272380D01*
X132136190Y-80272380D02*
X132136190Y-79272380D01*
X132231428Y-79415238D01*
X132326666Y-79510476D01*
X132421904Y-79558095D01*
X140921904Y-82050000D02*
X141017142Y-82002380D01*
X141160000Y-82002380D01*
X141302857Y-82050000D01*
X141398095Y-82145238D01*
X141445714Y-82240476D01*
X141493333Y-82430952D01*
X141493333Y-82573809D01*
X141445714Y-82764285D01*
X141398095Y-82859523D01*
X141302857Y-82954761D01*
X141160000Y-83002380D01*
X141064761Y-83002380D01*
X140921904Y-82954761D01*
X140874285Y-82907142D01*
X140874285Y-82573809D01*
X141064761Y-82573809D01*
X140445714Y-83002380D02*
X140445714Y-82002380D01*
X139874285Y-83002380D01*
X139874285Y-82002380D01*
X139398095Y-83002380D02*
X139398095Y-82002380D01*
X139160000Y-82002380D01*
X139017142Y-82050000D01*
X138921904Y-82145238D01*
X138874285Y-82240476D01*
X138826666Y-82430952D01*
X138826666Y-82573809D01*
X138874285Y-82764285D01*
X138921904Y-82859523D01*
X139017142Y-82954761D01*
X139160000Y-83002380D01*
X139398095Y-83002380D01*
X133921904Y-69350000D02*
X134017142Y-69302380D01*
X134160000Y-69302380D01*
X134302857Y-69350000D01*
X134398095Y-69445238D01*
X134445714Y-69540476D01*
X134493333Y-69730952D01*
X134493333Y-69873809D01*
X134445714Y-70064285D01*
X134398095Y-70159523D01*
X134302857Y-70254761D01*
X134160000Y-70302380D01*
X134064761Y-70302380D01*
X133921904Y-70254761D01*
X133874285Y-70207142D01*
X133874285Y-69873809D01*
X134064761Y-69873809D01*
X133445714Y-70302380D02*
X133445714Y-69302380D01*
X132874285Y-70302380D01*
X132874285Y-69302380D01*
X132398095Y-70302380D02*
X132398095Y-69302380D01*
X132160000Y-69302380D01*
X132017142Y-69350000D01*
X131921904Y-69445238D01*
X131874285Y-69540476D01*
X131826666Y-69730952D01*
X131826666Y-69873809D01*
X131874285Y-70064285D01*
X131921904Y-70159523D01*
X132017142Y-70254761D01*
X132160000Y-70302380D01*
X132398095Y-70302380D01*
X134398095Y-72366666D02*
X133921904Y-72366666D01*
X134493333Y-72652380D02*
X134160000Y-71652380D01*
X133826666Y-72652380D01*
X133302857Y-71652380D02*
X133112380Y-71652380D01*
X133017142Y-71700000D01*
X132921904Y-71795238D01*
X132874285Y-71985714D01*
X132874285Y-72319047D01*
X132921904Y-72509523D01*
X133017142Y-72604761D01*
X133112380Y-72652380D01*
X133302857Y-72652380D01*
X133398095Y-72604761D01*
X133493333Y-72509523D01*
X133540952Y-72319047D01*
X133540952Y-71985714D01*
X133493333Y-71795238D01*
X133398095Y-71700000D01*
X133302857Y-71652380D01*
X131921904Y-72652380D02*
X132493333Y-72652380D01*
X132207619Y-72652380D02*
X132207619Y-71652380D01*
X132302857Y-71795238D01*
X132398095Y-71890476D01*
X132493333Y-71938095D01*
X141636190Y-67586666D02*
X141160000Y-67586666D01*
X141731428Y-67872380D02*
X141398095Y-66872380D01*
X141064761Y-67872380D01*
X140731428Y-67872380D02*
X140731428Y-66872380D01*
X140255238Y-67872380D02*
X140255238Y-66872380D01*
X139683809Y-67872380D01*
X139683809Y-66872380D01*
X139255238Y-66967619D02*
X139207619Y-66920000D01*
X139112380Y-66872380D01*
X138874285Y-66872380D01*
X138779047Y-66920000D01*
X138731428Y-66967619D01*
X138683809Y-67062857D01*
X138683809Y-67158095D01*
X138731428Y-67300952D01*
X139302857Y-67872380D01*
X138683809Y-67872380D01*
X142064761Y-80572380D02*
X142064761Y-79572380D01*
X141683809Y-79572380D01*
X141588571Y-79620000D01*
X141540952Y-79667619D01*
X141493333Y-79762857D01*
X141493333Y-79905714D01*
X141540952Y-80000952D01*
X141588571Y-80048571D01*
X141683809Y-80096190D01*
X142064761Y-80096190D01*
X141160000Y-79572380D02*
X140921904Y-80572380D01*
X140731428Y-79858095D01*
X140540952Y-80572380D01*
X140302857Y-79572380D01*
X139921904Y-80572380D02*
X139921904Y-79572380D01*
X139588571Y-80286666D01*
X139255238Y-79572380D01*
X139255238Y-80572380D01*
X138445714Y-80048571D02*
X138302857Y-80096190D01*
X138255238Y-80143809D01*
X138207619Y-80239047D01*
X138207619Y-80381904D01*
X138255238Y-80477142D01*
X138302857Y-80524761D01*
X138398095Y-80572380D01*
X138779047Y-80572380D01*
X138779047Y-79572380D01*
X138445714Y-79572380D01*
X138350476Y-79620000D01*
X138302857Y-79667619D01*
X138255238Y-79762857D01*
X138255238Y-79858095D01*
X138302857Y-79953333D01*
X138350476Y-80000952D01*
X138445714Y-80048571D01*
X138779047Y-80048571D01*
X134493333Y-66572380D02*
X134160000Y-67572380D01*
X133826666Y-66572380D01*
X132921904Y-67477142D02*
X132969523Y-67524761D01*
X133112380Y-67572380D01*
X133207619Y-67572380D01*
X133350476Y-67524761D01*
X133445714Y-67429523D01*
X133493333Y-67334285D01*
X133540952Y-67143809D01*
X133540952Y-67000952D01*
X133493333Y-66810476D01*
X133445714Y-66715238D01*
X133350476Y-66620000D01*
X133207619Y-66572380D01*
X133112380Y-66572380D01*
X132969523Y-66620000D01*
X132921904Y-66667619D01*
X131921904Y-67477142D02*
X131969523Y-67524761D01*
X132112380Y-67572380D01*
X132207619Y-67572380D01*
X132350476Y-67524761D01*
X132445714Y-67429523D01*
X132493333Y-67334285D01*
X132540952Y-67143809D01*
X132540952Y-67000952D01*
X132493333Y-66810476D01*
X132445714Y-66715238D01*
X132350476Y-66620000D01*
X132207619Y-66572380D01*
X132112380Y-66572380D01*
X131969523Y-66620000D01*
X131921904Y-66667619D01*
X141326666Y-77508571D02*
X141183809Y-77556190D01*
X141136190Y-77603809D01*
X141088571Y-77699047D01*
X141088571Y-77841904D01*
X141136190Y-77937142D01*
X141183809Y-77984761D01*
X141279047Y-78032380D01*
X141660000Y-78032380D01*
X141660000Y-77032380D01*
X141326666Y-77032380D01*
X141231428Y-77080000D01*
X141183809Y-77127619D01*
X141136190Y-77222857D01*
X141136190Y-77318095D01*
X141183809Y-77413333D01*
X141231428Y-77460952D01*
X141326666Y-77508571D01*
X141660000Y-77508571D01*
X140660000Y-78032380D02*
X140660000Y-77032380D01*
X140183809Y-78032380D02*
X140183809Y-77032380D01*
X139612380Y-78032380D01*
X139612380Y-77032380D01*
X139183809Y-77127619D02*
X139136190Y-77080000D01*
X139040952Y-77032380D01*
X138802857Y-77032380D01*
X138707619Y-77080000D01*
X138660000Y-77127619D01*
X138612380Y-77222857D01*
X138612380Y-77318095D01*
X138660000Y-77460952D01*
X139231428Y-78032380D01*
X138612380Y-78032380D01*
X141993333Y-65332380D02*
X141993333Y-64332380D01*
X141612380Y-64332380D01*
X141517142Y-64380000D01*
X141469523Y-64427619D01*
X141421904Y-64522857D01*
X141421904Y-64665714D01*
X141469523Y-64760952D01*
X141517142Y-64808571D01*
X141612380Y-64856190D01*
X141993333Y-64856190D01*
X141088571Y-64332380D02*
X140850476Y-65332380D01*
X140660000Y-64618095D01*
X140469523Y-65332380D01*
X140231428Y-64332380D01*
X139850476Y-65332380D02*
X139850476Y-64332380D01*
X139517142Y-65046666D01*
X139183809Y-64332380D01*
X139183809Y-65332380D01*
X138755238Y-65046666D02*
X138279047Y-65046666D01*
X138850476Y-65332380D02*
X138517142Y-64332380D01*
X138183809Y-65332380D01*
X141326666Y-74968571D02*
X141183809Y-75016190D01*
X141136190Y-75063809D01*
X141088571Y-75159047D01*
X141088571Y-75301904D01*
X141136190Y-75397142D01*
X141183809Y-75444761D01*
X141279047Y-75492380D01*
X141660000Y-75492380D01*
X141660000Y-74492380D01*
X141326666Y-74492380D01*
X141231428Y-74540000D01*
X141183809Y-74587619D01*
X141136190Y-74682857D01*
X141136190Y-74778095D01*
X141183809Y-74873333D01*
X141231428Y-74920952D01*
X141326666Y-74968571D01*
X141660000Y-74968571D01*
X140660000Y-75492380D02*
X140660000Y-74492380D01*
X140183809Y-75492380D02*
X140183809Y-74492380D01*
X139612380Y-75492380D01*
X139612380Y-74492380D01*
X138612380Y-75492380D02*
X139183809Y-75492380D01*
X138898095Y-75492380D02*
X138898095Y-74492380D01*
X138993333Y-74635238D01*
X139088571Y-74730476D01*
X139183809Y-74778095D01*
X141755238Y-72904761D02*
X141612380Y-72952380D01*
X141374285Y-72952380D01*
X141279047Y-72904761D01*
X141231428Y-72857142D01*
X141183809Y-72761904D01*
X141183809Y-72666666D01*
X141231428Y-72571428D01*
X141279047Y-72523809D01*
X141374285Y-72476190D01*
X141564761Y-72428571D01*
X141660000Y-72380952D01*
X141707619Y-72333333D01*
X141755238Y-72238095D01*
X141755238Y-72142857D01*
X141707619Y-72047619D01*
X141660000Y-72000000D01*
X141564761Y-71952380D01*
X141326666Y-71952380D01*
X141183809Y-72000000D01*
X140898095Y-71952380D02*
X140326666Y-71952380D01*
X140612380Y-72952380D02*
X140612380Y-71952380D01*
X139660000Y-72428571D02*
X139517142Y-72476190D01*
X139469523Y-72523809D01*
X139421904Y-72619047D01*
X139421904Y-72761904D01*
X139469523Y-72857142D01*
X139517142Y-72904761D01*
X139612380Y-72952380D01*
X139993333Y-72952380D01*
X139993333Y-71952380D01*
X139660000Y-71952380D01*
X139564761Y-72000000D01*
X139517142Y-72047619D01*
X139469523Y-72142857D01*
X139469523Y-72238095D01*
X139517142Y-72333333D01*
X139564761Y-72380952D01*
X139660000Y-72428571D01*
X139993333Y-72428571D01*
X138802857Y-72476190D02*
X138802857Y-72952380D01*
X139136190Y-71952380D02*
X138802857Y-72476190D01*
X138469523Y-71952380D01*
X134088571Y-77208571D02*
X133945714Y-77256190D01*
X133898095Y-77303809D01*
X133850476Y-77399047D01*
X133850476Y-77541904D01*
X133898095Y-77637142D01*
X133945714Y-77684761D01*
X134040952Y-77732380D01*
X134421904Y-77732380D01*
X134421904Y-76732380D01*
X134088571Y-76732380D01*
X133993333Y-76780000D01*
X133945714Y-76827619D01*
X133898095Y-76922857D01*
X133898095Y-77018095D01*
X133945714Y-77113333D01*
X133993333Y-77160952D01*
X134088571Y-77208571D01*
X134421904Y-77208571D01*
X133231428Y-76732380D02*
X133040952Y-76732380D01*
X132945714Y-76780000D01*
X132850476Y-76875238D01*
X132802857Y-77065714D01*
X132802857Y-77399047D01*
X132850476Y-77589523D01*
X132945714Y-77684761D01*
X133040952Y-77732380D01*
X133231428Y-77732380D01*
X133326666Y-77684761D01*
X133421904Y-77589523D01*
X133469523Y-77399047D01*
X133469523Y-77065714D01*
X133421904Y-76875238D01*
X133326666Y-76780000D01*
X133231428Y-76732380D01*
X132421904Y-76827619D02*
X132374285Y-76780000D01*
X132279047Y-76732380D01*
X132040952Y-76732380D01*
X131945714Y-76780000D01*
X131898095Y-76827619D01*
X131850476Y-76922857D01*
X131850476Y-77018095D01*
X131898095Y-77160952D01*
X132469523Y-77732380D01*
X131850476Y-77732380D01*
X134064761Y-64032380D02*
X133731428Y-65032380D01*
X133398095Y-64032380D01*
X133064761Y-65032380D02*
X133064761Y-64032380D01*
X132731428Y-64746666D01*
X132398095Y-64032380D01*
X132398095Y-65032380D01*
X134398095Y-74906666D02*
X133921904Y-74906666D01*
X134493333Y-75192380D02*
X134160000Y-74192380D01*
X133826666Y-75192380D01*
X133302857Y-74192380D02*
X133112380Y-74192380D01*
X133017142Y-74240000D01*
X132921904Y-74335238D01*
X132874285Y-74525714D01*
X132874285Y-74859047D01*
X132921904Y-75049523D01*
X133017142Y-75144761D01*
X133112380Y-75192380D01*
X133302857Y-75192380D01*
X133398095Y-75144761D01*
X133493333Y-75049523D01*
X133540952Y-74859047D01*
X133540952Y-74525714D01*
X133493333Y-74335238D01*
X133398095Y-74240000D01*
X133302857Y-74192380D01*
X132493333Y-74287619D02*
X132445714Y-74240000D01*
X132350476Y-74192380D01*
X132112380Y-74192380D01*
X132017142Y-74240000D01*
X131969523Y-74287619D01*
X131921904Y-74382857D01*
X131921904Y-74478095D01*
X131969523Y-74620952D01*
X132540952Y-75192380D01*
X131921904Y-75192380D01*
X141636190Y-70126666D02*
X141160000Y-70126666D01*
X141731428Y-70412380D02*
X141398095Y-69412380D01*
X141064761Y-70412380D01*
X140731428Y-70412380D02*
X140731428Y-69412380D01*
X140255238Y-70412380D02*
X140255238Y-69412380D01*
X139683809Y-70412380D01*
X139683809Y-69412380D01*
X138683809Y-70412380D02*
X139255238Y-70412380D01*
X138969523Y-70412380D02*
X138969523Y-69412380D01*
X139064761Y-69555238D01*
X139160000Y-69650476D01*
X139255238Y-69698095D01*
%TO.C,J3*%
X171833333Y-59702380D02*
X171833333Y-60416666D01*
X171880952Y-60559523D01*
X171976190Y-60654761D01*
X172119047Y-60702380D01*
X172214285Y-60702380D01*
X171452380Y-59702380D02*
X170833333Y-59702380D01*
X171166666Y-60083333D01*
X171023809Y-60083333D01*
X170928571Y-60130952D01*
X170880952Y-60178571D01*
X170833333Y-60273809D01*
X170833333Y-60511904D01*
X170880952Y-60607142D01*
X170928571Y-60654761D01*
X171023809Y-60702380D01*
X171309523Y-60702380D01*
X171404761Y-60654761D01*
X171452380Y-60607142D01*
X168940476Y-60702380D02*
X168940476Y-59702380D01*
X168702380Y-59702380D01*
X168559523Y-59750000D01*
X168464285Y-59845238D01*
X168416666Y-59940476D01*
X168369047Y-60130952D01*
X168369047Y-60273809D01*
X168416666Y-60464285D01*
X168464285Y-60559523D01*
X168559523Y-60654761D01*
X168702380Y-60702380D01*
X168940476Y-60702380D01*
X167369047Y-60607142D02*
X167416666Y-60654761D01*
X167559523Y-60702380D01*
X167654761Y-60702380D01*
X167797619Y-60654761D01*
X167892857Y-60559523D01*
X167940476Y-60464285D01*
X167988095Y-60273809D01*
X167988095Y-60130952D01*
X167940476Y-59940476D01*
X167892857Y-59845238D01*
X167797619Y-59750000D01*
X167654761Y-59702380D01*
X167559523Y-59702380D01*
X167416666Y-59750000D01*
X167369047Y-59797619D01*
X165607142Y-60607142D02*
X165654761Y-60654761D01*
X165797619Y-60702380D01*
X165892857Y-60702380D01*
X166035714Y-60654761D01*
X166130952Y-60559523D01*
X166178571Y-60464285D01*
X166226190Y-60273809D01*
X166226190Y-60130952D01*
X166178571Y-59940476D01*
X166130952Y-59845238D01*
X166035714Y-59750000D01*
X165892857Y-59702380D01*
X165797619Y-59702380D01*
X165654761Y-59750000D01*
X165607142Y-59797619D01*
X165035714Y-60702380D02*
X165130952Y-60654761D01*
X165178571Y-60607142D01*
X165226190Y-60511904D01*
X165226190Y-60226190D01*
X165178571Y-60130952D01*
X165130952Y-60083333D01*
X165035714Y-60035714D01*
X164892857Y-60035714D01*
X164797619Y-60083333D01*
X164750000Y-60130952D01*
X164702380Y-60226190D01*
X164702380Y-60511904D01*
X164750000Y-60607142D01*
X164797619Y-60654761D01*
X164892857Y-60702380D01*
X165035714Y-60702380D01*
X164273809Y-60035714D02*
X164273809Y-60702380D01*
X164273809Y-60130952D02*
X164226190Y-60083333D01*
X164130952Y-60035714D01*
X163988095Y-60035714D01*
X163892857Y-60083333D01*
X163845238Y-60178571D01*
X163845238Y-60702380D01*
X163464285Y-60035714D02*
X163226190Y-60702380D01*
X162988095Y-60035714D01*
X162226190Y-60654761D02*
X162321428Y-60702380D01*
X162511904Y-60702380D01*
X162607142Y-60654761D01*
X162654761Y-60559523D01*
X162654761Y-60178571D01*
X162607142Y-60083333D01*
X162511904Y-60035714D01*
X162321428Y-60035714D01*
X162226190Y-60083333D01*
X162178571Y-60178571D01*
X162178571Y-60273809D01*
X162654761Y-60369047D01*
X161750000Y-60702380D02*
X161750000Y-60035714D01*
X161750000Y-60226190D02*
X161702380Y-60130952D01*
X161654761Y-60083333D01*
X161559523Y-60035714D01*
X161464285Y-60035714D01*
X161273809Y-60035714D02*
X160892857Y-60035714D01*
X161130952Y-59702380D02*
X161130952Y-60559523D01*
X161083333Y-60654761D01*
X160988095Y-60702380D01*
X160892857Y-60702380D01*
X160178571Y-60654761D02*
X160273809Y-60702380D01*
X160464285Y-60702380D01*
X160559523Y-60654761D01*
X160607142Y-60559523D01*
X160607142Y-60178571D01*
X160559523Y-60083333D01*
X160464285Y-60035714D01*
X160273809Y-60035714D01*
X160178571Y-60083333D01*
X160130952Y-60178571D01*
X160130952Y-60273809D01*
X160607142Y-60369047D01*
X159702380Y-60702380D02*
X159702380Y-60035714D01*
X159702380Y-60226190D02*
X159654761Y-60130952D01*
X159607142Y-60083333D01*
X159511904Y-60035714D01*
X159416666Y-60035714D01*
X171619047Y-78952380D02*
X171428571Y-78952380D01*
X171333333Y-79000000D01*
X171238095Y-79095238D01*
X171190476Y-79285714D01*
X171190476Y-79619047D01*
X171238095Y-79809523D01*
X171333333Y-79904761D01*
X171428571Y-79952380D01*
X171619047Y-79952380D01*
X171714285Y-79904761D01*
X171809523Y-79809523D01*
X171857142Y-79619047D01*
X171857142Y-79285714D01*
X171809523Y-79095238D01*
X171714285Y-79000000D01*
X171619047Y-78952380D01*
X170761904Y-78952380D02*
X170761904Y-79761904D01*
X170714285Y-79857142D01*
X170666666Y-79904761D01*
X170571428Y-79952380D01*
X170380952Y-79952380D01*
X170285714Y-79904761D01*
X170238095Y-79857142D01*
X170190476Y-79761904D01*
X170190476Y-78952380D01*
X169857142Y-78952380D02*
X169285714Y-78952380D01*
X169571428Y-79952380D02*
X169571428Y-78952380D01*
X168952380Y-79571428D02*
X168190476Y-79571428D01*
X168571428Y-79952380D02*
X168571428Y-79190476D01*
X160119047Y-78952380D02*
X159928571Y-78952380D01*
X159833333Y-79000000D01*
X159738095Y-79095238D01*
X159690476Y-79285714D01*
X159690476Y-79619047D01*
X159738095Y-79809523D01*
X159833333Y-79904761D01*
X159928571Y-79952380D01*
X160119047Y-79952380D01*
X160214285Y-79904761D01*
X160309523Y-79809523D01*
X160357142Y-79619047D01*
X160357142Y-79285714D01*
X160309523Y-79095238D01*
X160214285Y-79000000D01*
X160119047Y-78952380D01*
X159261904Y-78952380D02*
X159261904Y-79761904D01*
X159214285Y-79857142D01*
X159166666Y-79904761D01*
X159071428Y-79952380D01*
X158880952Y-79952380D01*
X158785714Y-79904761D01*
X158738095Y-79857142D01*
X158690476Y-79761904D01*
X158690476Y-78952380D01*
X158357142Y-78952380D02*
X157785714Y-78952380D01*
X158071428Y-79952380D02*
X158071428Y-78952380D01*
X157452380Y-79571428D02*
X156690476Y-79571428D01*
X170370476Y-70952380D02*
X170846666Y-70952380D01*
X170894285Y-71428571D01*
X170846666Y-71380952D01*
X170751428Y-71333333D01*
X170513333Y-71333333D01*
X170418095Y-71380952D01*
X170370476Y-71428571D01*
X170322857Y-71523809D01*
X170322857Y-71761904D01*
X170370476Y-71857142D01*
X170418095Y-71904761D01*
X170513333Y-71952380D01*
X170751428Y-71952380D01*
X170846666Y-71904761D01*
X170894285Y-71857142D01*
X170037142Y-70952380D02*
X169703809Y-71952380D01*
X169370476Y-70952380D01*
X171142857Y-67612380D02*
X171142857Y-66612380D01*
X170666666Y-67612380D02*
X170666666Y-66612380D01*
X170095238Y-67612380D01*
X170095238Y-66612380D01*
X169619047Y-67231428D02*
X168857142Y-67231428D01*
X169238095Y-67612380D02*
X169238095Y-66850476D01*
X159142857Y-67612380D02*
X159142857Y-66612380D01*
X158666666Y-67612380D02*
X158666666Y-66612380D01*
X158095238Y-67612380D01*
X158095238Y-66612380D01*
X157619047Y-67231428D02*
X156857142Y-67231428D01*
%TO.C,J7*%
X150333333Y-85452380D02*
X150333333Y-86166666D01*
X150380952Y-86309523D01*
X150476190Y-86404761D01*
X150619047Y-86452380D01*
X150714285Y-86452380D01*
X149952380Y-85452380D02*
X149285714Y-85452380D01*
X149714285Y-86452380D01*
X153357142Y-91857142D02*
X153404761Y-91904761D01*
X153547619Y-91952380D01*
X153642857Y-91952380D01*
X153785714Y-91904761D01*
X153880952Y-91809523D01*
X153928571Y-91714285D01*
X153976190Y-91523809D01*
X153976190Y-91380952D01*
X153928571Y-91190476D01*
X153880952Y-91095238D01*
X153785714Y-91000000D01*
X153642857Y-90952380D01*
X153547619Y-90952380D01*
X153404761Y-91000000D01*
X153357142Y-91047619D01*
X152357142Y-91952380D02*
X152690476Y-91476190D01*
X152928571Y-91952380D02*
X152928571Y-90952380D01*
X152547619Y-90952380D01*
X152452380Y-91000000D01*
X152404761Y-91047619D01*
X152357142Y-91142857D01*
X152357142Y-91285714D01*
X152404761Y-91380952D01*
X152452380Y-91428571D01*
X152547619Y-91476190D01*
X152928571Y-91476190D01*
X151976190Y-91047619D02*
X151928571Y-91000000D01*
X151833333Y-90952380D01*
X151595238Y-90952380D01*
X151500000Y-91000000D01*
X151452380Y-91047619D01*
X151404761Y-91142857D01*
X151404761Y-91238095D01*
X151452380Y-91380952D01*
X152023809Y-91952380D01*
X151404761Y-91952380D01*
X150785714Y-90952380D02*
X150690476Y-90952380D01*
X150595238Y-91000000D01*
X150547619Y-91047619D01*
X150500000Y-91142857D01*
X150452380Y-91333333D01*
X150452380Y-91571428D01*
X150500000Y-91761904D01*
X150547619Y-91857142D01*
X150595238Y-91904761D01*
X150690476Y-91952380D01*
X150785714Y-91952380D01*
X150880952Y-91904761D01*
X150928571Y-91857142D01*
X150976190Y-91761904D01*
X151023809Y-91571428D01*
X151023809Y-91333333D01*
X150976190Y-91142857D01*
X150928571Y-91047619D01*
X150880952Y-91000000D01*
X150785714Y-90952380D01*
X150119047Y-90952380D02*
X149500000Y-90952380D01*
X149833333Y-91333333D01*
X149690476Y-91333333D01*
X149595238Y-91380952D01*
X149547619Y-91428571D01*
X149500000Y-91523809D01*
X149500000Y-91761904D01*
X149547619Y-91857142D01*
X149595238Y-91904761D01*
X149690476Y-91952380D01*
X149976190Y-91952380D01*
X150071428Y-91904761D01*
X150119047Y-91857142D01*
X149119047Y-91047619D02*
X149071428Y-91000000D01*
X148976190Y-90952380D01*
X148738095Y-90952380D01*
X148642857Y-91000000D01*
X148595238Y-91047619D01*
X148547619Y-91142857D01*
X148547619Y-91238095D01*
X148595238Y-91380952D01*
X149166666Y-91952380D01*
X148547619Y-91952380D01*
X146785714Y-91952380D02*
X147119047Y-91476190D01*
X147357142Y-91952380D02*
X147357142Y-90952380D01*
X146976190Y-90952380D01*
X146880952Y-91000000D01*
X146833333Y-91047619D01*
X146785714Y-91142857D01*
X146785714Y-91285714D01*
X146833333Y-91380952D01*
X146880952Y-91428571D01*
X146976190Y-91476190D01*
X147357142Y-91476190D01*
X146500000Y-90952380D02*
X145928571Y-90952380D01*
X146214285Y-91952380D02*
X146214285Y-90952380D01*
X145023809Y-91857142D02*
X145071428Y-91904761D01*
X145214285Y-91952380D01*
X145309523Y-91952380D01*
X145452380Y-91904761D01*
X145547619Y-91809523D01*
X145595238Y-91714285D01*
X145642857Y-91523809D01*
X145642857Y-91380952D01*
X145595238Y-91190476D01*
X145547619Y-91095238D01*
X145452380Y-91000000D01*
X145309523Y-90952380D01*
X145214285Y-90952380D01*
X145071428Y-91000000D01*
X145023809Y-91047619D01*
D11*
%TO.C,J2*%
X147160000Y-62120000D02*
X147160000Y-85120000D01*
X145792500Y-66040000D02*
X145792500Y-83880000D01*
X130870000Y-83880000D02*
X128210000Y-83880000D01*
X130870000Y-63500000D02*
X130870000Y-83880000D01*
X128210000Y-63500000D02*
X128210000Y-83880000D01*
X145792500Y-64770000D02*
X145792500Y-63440000D01*
X130870000Y-63500000D02*
X128210000Y-63500000D01*
X127160000Y-62120000D02*
X127160000Y-85120000D01*
X145792500Y-66040000D02*
X143132500Y-66040000D01*
X143132500Y-66040000D02*
X143132500Y-83880000D01*
X145792500Y-63440000D02*
X144462500Y-63440000D01*
X147160000Y-62120000D02*
X127160000Y-62120000D01*
X145792500Y-83880000D02*
X143132500Y-83880000D01*
X127160000Y-85120000D02*
X133160000Y-85120000D01*
X133160000Y-85120000D02*
X133160000Y-84120000D01*
X147160000Y-85120000D02*
X141160000Y-85120000D01*
X141160000Y-85120000D02*
X141160000Y-84120000D01*
%TO.C,J3*%
X173830000Y-85160000D02*
X166830000Y-85160000D01*
X154830000Y-85160000D02*
X161830000Y-85160000D01*
X161390000Y-62630000D02*
X161390000Y-65290000D01*
X173830000Y-61160000D02*
X154830000Y-61160000D01*
X158790000Y-65290000D02*
X161390000Y-65290000D01*
X156190000Y-62630000D02*
X156190000Y-63960000D01*
X158790000Y-81130000D02*
X161390000Y-81130000D01*
X158790000Y-81130000D02*
X156190000Y-81130000D01*
X156190000Y-81130000D02*
X156190000Y-83790000D01*
X157520000Y-62630000D02*
X156190000Y-62630000D01*
X167430001Y-83800000D02*
X172630000Y-83800000D01*
X173830000Y-85160000D02*
X173830000Y-61160000D01*
X156190000Y-83790000D02*
X161390000Y-83790000D01*
X158790000Y-62630000D02*
X158790000Y-65290000D01*
X167430001Y-62640000D02*
X167430001Y-65300000D01*
X158790000Y-81130000D02*
X158790000Y-83790000D01*
X158790000Y-62630000D02*
X161390000Y-62630000D01*
X172630000Y-62640000D02*
X172630000Y-65300000D01*
X154830000Y-61160000D02*
X154830000Y-85160000D01*
X167430001Y-65300000D02*
X172630000Y-65300000D01*
X167430001Y-81140000D02*
X167430001Y-83800000D01*
X167430001Y-62640000D02*
X172630000Y-62640000D01*
X167430001Y-81140000D02*
X172630000Y-81140000D01*
X161390000Y-81130000D02*
X161390000Y-83790000D01*
X172630000Y-81140000D02*
X172630000Y-83800000D01*
%TO.C,J7*%
X144250000Y-90155914D02*
X155470000Y-90155914D01*
X146860000Y-116232810D02*
X152860000Y-116232810D01*
X155470000Y-90155914D02*
X155470000Y-86980914D01*
X155470000Y-86980914D02*
X144250000Y-86980914D01*
X144250000Y-86980914D02*
X144250000Y-90155914D01*
%TD*%
M02*
