%TF.GenerationSoftware,KiCad,Pcbnew,(6.0.4)*%
%TF.CreationDate,2022-05-12T17:17:44+09:00*%
%TF.ProjectId,0506,30353036-2e6b-4696-9361-645f70636258,rev?*%
%TF.SameCoordinates,Original*%
%TF.FileFunction,Soldermask,Bot*%
%TF.FilePolarity,Negative*%
%FSLAX46Y46*%
G04 Gerber Fmt 4.6, Leading zero omitted, Abs format (unit mm)*
G04 Created by KiCad (PCBNEW (6.0.4)) date 2022-05-12 17:17:44*
%MOMM*%
%LPD*%
G01*
G04 APERTURE LIST*
G04 Aperture macros list*
%AMRoundRect*
0 Rectangle with rounded corners*
0 $1 Rounding radius*
0 $2 $3 $4 $5 $6 $7 $8 $9 X,Y pos of 4 corners*
0 Add a 4 corners polygon primitive as box body*
4,1,4,$2,$3,$4,$5,$6,$7,$8,$9,$2,$3,0*
0 Add four circle primitives for the rounded corners*
1,1,$1+$1,$2,$3*
1,1,$1+$1,$4,$5*
1,1,$1+$1,$6,$7*
1,1,$1+$1,$8,$9*
0 Add four rect primitives between the rounded corners*
20,1,$1+$1,$2,$3,$4,$5,0*
20,1,$1+$1,$4,$5,$6,$7,0*
20,1,$1+$1,$6,$7,$8,$9,0*
20,1,$1+$1,$8,$9,$2,$3,0*%
G04 Aperture macros list end*
%ADD10C,1.700000*%
%ADD11O,1.700000X1.700000*%
%ADD12R,1.700000X1.700000*%
%ADD13C,2.100000*%
%ADD14R,2.100000X2.100000*%
%ADD15C,10.000000*%
%ADD16C,3.500000*%
%ADD17C,2.000000*%
%ADD18RoundRect,0.250000X-0.600000X-0.675000X0.600000X-0.675000X0.600000X0.675000X-0.600000X0.675000X0*%
%ADD19O,1.700000X1.850000*%
%ADD20RoundRect,0.250000X-0.675000X0.600000X-0.675000X-0.600000X0.675000X-0.600000X0.675000X0.600000X0*%
%ADD21O,1.850000X1.700000*%
G04 APERTURE END LIST*
D10*
%TO.C,J2*%
X129540000Y-64770000D03*
D11*
X129540000Y-67310000D03*
X129540000Y-69850000D03*
X129540000Y-72390000D03*
X129540000Y-74930000D03*
X129540000Y-77470000D03*
X129540000Y-80010000D03*
X129540000Y-82550000D03*
X144462500Y-82550000D03*
X144462500Y-80010000D03*
X144462500Y-77470000D03*
X144462500Y-74930000D03*
X144462500Y-72390000D03*
X144462500Y-69850000D03*
D12*
X144462500Y-67310000D03*
X144462500Y-64770000D03*
%TD*%
%TO.C,J3*%
X157520000Y-82460000D03*
D11*
X160060000Y-82460000D03*
D10*
X168750000Y-82470000D03*
D11*
X171300000Y-82470000D03*
X171300000Y-63970000D03*
D10*
X168750000Y-63970000D03*
D11*
X160060000Y-63960000D03*
D12*
X157520000Y-63960000D03*
%TD*%
D13*
%TO.C,J7*%
X149860000Y-108310914D03*
D14*
X149860000Y-88310914D03*
%TD*%
D15*
%TO.C,H3*%
X121000000Y-73000000D03*
%TD*%
D16*
%TO.C,H4*%
X120000000Y-83000000D03*
%TD*%
%TO.C,H2*%
X180000000Y-83000000D03*
%TD*%
%TO.C,H1*%
X150000000Y-53000000D03*
%TD*%
D17*
%TO.C,J1*%
X138570000Y-100510000D03*
X141110000Y-100510000D03*
X143650000Y-100510000D03*
X146190000Y-100510000D03*
X148730000Y-100510000D03*
X151270000Y-100510000D03*
X153810000Y-100510000D03*
X156350000Y-100510000D03*
X158890000Y-103050000D03*
X158890000Y-100510000D03*
X158890000Y-97970000D03*
X158890000Y-95430000D03*
X158890000Y-92890000D03*
X161430000Y-103050000D03*
X161430000Y-100510000D03*
X161430000Y-97970000D03*
X161430000Y-95430000D03*
X161430000Y-92890000D03*
X163970000Y-103050000D03*
X163970000Y-100510000D03*
X163970000Y-97970000D03*
X163970000Y-95430000D03*
X163970000Y-92890000D03*
X163970000Y-90350000D03*
X163970000Y-87810000D03*
X163970000Y-85270000D03*
X136030000Y-85270000D03*
X136030000Y-87810000D03*
X136030000Y-90350000D03*
X136030000Y-92890000D03*
X136030000Y-95430000D03*
X136030000Y-97970000D03*
X136030000Y-100510000D03*
X136030000Y-103050000D03*
X138570000Y-103050000D03*
X141110000Y-103050000D03*
X143650000Y-103050000D03*
X146190000Y-103050000D03*
X148730000Y-103050000D03*
X151270000Y-103050000D03*
X153810000Y-103050000D03*
X156350000Y-103050000D03*
X136030000Y-64950000D03*
X136030000Y-67490000D03*
X136030000Y-70030000D03*
X136030000Y-72570000D03*
X136030000Y-75110000D03*
X136030000Y-77650000D03*
X136030000Y-80190000D03*
X136030000Y-82730000D03*
X163970000Y-82730000D03*
X163970000Y-80190000D03*
X163970000Y-77650000D03*
X163970000Y-75110000D03*
X163970000Y-72570000D03*
X163970000Y-70030000D03*
X163970000Y-67490000D03*
X163970000Y-64950000D03*
%TD*%
D18*
%TO.C,J6*%
X134620000Y-55880000D03*
D19*
X137120000Y-55880000D03*
%TD*%
D20*
%TO.C,J5*%
X121920000Y-94060000D03*
D21*
X121920000Y-96560000D03*
X121920000Y-99060000D03*
%TD*%
D18*
%TO.C,J4*%
X162560000Y-55880000D03*
D19*
X165060000Y-55880000D03*
%TD*%
M02*
