M48
; DRILL file {KiCad (6.0.4)} date Thu May 12 16:42:56 2022
; FORMAT={-:-/ absolute / inch / decimal}
; #@! TF.CreationDate,2022-05-12T16:42:56+09:00
; #@! TF.GenerationSoftware,Kicad,Pcbnew,(6.0.4)
; #@! TF.FileFunction,Plated,1,2,PTH
FMAT,2
INCH
; #@! TA.AperFunction,Plated,PTH,ViaDrill
T1C0.0157
; #@! TA.AperFunction,Plated,PTH,ComponentDrill
T2C0.0335
; #@! TA.AperFunction,Plated,PTH,ComponentDrill
T3C0.0394
; #@! TA.AperFunction,Plated,PTH,ComponentDrill
T4C0.0402
; #@! TA.AperFunction,Plated,PTH,ComponentDrill
T5C0.0512
%
G90
G05
T1
X5.225Y-2.685
X5.3346Y-2.3622
X5.4823Y-2.3622
X5.5906Y-2.3622
X5.8366Y-2.3819
X5.98Y-2.3819
X6.1516Y-2.31
X6.1516Y-2.405
X6.6535Y-3.905
X6.6535Y-4.0059
X6.715Y-2.313
X6.715Y-2.405
X6.875Y-3.0217
X6.875Y-3.385
X6.875Y-3.7008
X6.925Y-2.59
X6.925Y-2.7461
X6.925Y-2.905
X6.945Y-2.38
X7.0571Y-3.5531
X7.0571Y-3.7008
X7.0768Y-3.0217
X7.2146Y-3.5531
T2
X4.8Y-3.7031
X4.8Y-3.8016
X4.8Y-3.9
X5.3Y-2.2
X5.3984Y-2.2
X6.4Y-2.2
X6.4984Y-2.2
T3
X5.1Y-2.55
X5.1Y-2.65
X5.1Y-2.75
X5.1Y-2.85
X5.1Y-2.95
X5.1Y-3.05
X5.1Y-3.15
X5.1Y-3.25
X5.6875Y-2.55
X5.6875Y-2.65
X5.6875Y-2.75
X5.6875Y-2.85
X5.6875Y-2.95
X5.6875Y-3.05
X5.6875Y-3.15
X5.6875Y-3.25
X6.2016Y-2.5181
X6.2016Y-3.2465
X6.3016Y-2.5181
X6.3016Y-3.2465
X6.6437Y-2.5185
X6.6437Y-3.2469
X6.7441Y-2.5185
X6.7441Y-3.2469
T4
X5.3555Y-2.5571
X5.3555Y-2.6571
X5.3555Y-2.7571
X5.3555Y-2.8571
X5.3555Y-2.9571
X5.3555Y-3.0571
X5.3555Y-3.1571
X5.3555Y-3.2571
X5.3555Y-3.3571
X5.3555Y-3.4571
X5.3555Y-3.5571
X5.3555Y-3.6571
X5.3555Y-3.7571
X5.3555Y-3.8571
X5.3555Y-3.9571
X5.3555Y-4.0571
X5.4555Y-3.9571
X5.4555Y-4.0571
X5.5555Y-3.9571
X5.5555Y-4.0571
X5.6555Y-3.9571
X5.6555Y-4.0571
X5.7555Y-3.9571
X5.7555Y-4.0571
X5.8555Y-3.9571
X5.8555Y-4.0571
X5.9555Y-3.9571
X5.9555Y-4.0571
X6.0555Y-3.9571
X6.0555Y-4.0571
X6.1555Y-3.9571
X6.1555Y-4.0571
X6.2555Y-3.6571
X6.2555Y-3.7571
X6.2555Y-3.8571
X6.2555Y-3.9571
X6.2555Y-4.0571
X6.3555Y-3.6571
X6.3555Y-3.7571
X6.3555Y-3.8571
X6.3555Y-3.9571
X6.3555Y-4.0571
X6.4555Y-2.5571
X6.4555Y-2.6571
X6.4555Y-2.7571
X6.4555Y-2.8571
X6.4555Y-2.9571
X6.4555Y-3.0571
X6.4555Y-3.1571
X6.4555Y-3.2571
X6.4555Y-3.3571
X6.4555Y-3.4571
X6.4555Y-3.5571
X6.4555Y-3.6571
X6.4555Y-3.7571
X6.4555Y-3.8571
X6.4555Y-3.9571
X6.4555Y-4.0571
T5
X5.9Y-3.4768
X5.9Y-4.2642
T0
M30
