%TF.GenerationSoftware,KiCad,Pcbnew,(6.0.4)*%
%TF.CreationDate,2022-05-02T15:33:22+09:00*%
%TF.ProjectId,0425,30343235-2e6b-4696-9361-645f70636258,rev?*%
%TF.SameCoordinates,Original*%
%TF.FileFunction,Soldermask,Bot*%
%TF.FilePolarity,Negative*%
%FSLAX46Y46*%
G04 Gerber Fmt 4.6, Leading zero omitted, Abs format (unit mm)*
G04 Created by KiCad (PCBNEW (6.0.4)) date 2022-05-02 15:33:22*
%MOMM*%
%LPD*%
G01*
G04 APERTURE LIST*
G04 Aperture macros list*
%AMRoundRect*
0 Rectangle with rounded corners*
0 $1 Rounding radius*
0 $2 $3 $4 $5 $6 $7 $8 $9 X,Y pos of 4 corners*
0 Add a 4 corners polygon primitive as box body*
4,1,4,$2,$3,$4,$5,$6,$7,$8,$9,$2,$3,0*
0 Add four circle primitives for the rounded corners*
1,1,$1+$1,$2,$3*
1,1,$1+$1,$4,$5*
1,1,$1+$1,$6,$7*
1,1,$1+$1,$8,$9*
0 Add four rect primitives between the rounded corners*
20,1,$1+$1,$2,$3,$4,$5,0*
20,1,$1+$1,$4,$5,$6,$7,0*
20,1,$1+$1,$6,$7,$8,$9,0*
20,1,$1+$1,$8,$9,$2,$3,0*%
G04 Aperture macros list end*
%ADD10R,1.700000X1.700000*%
%ADD11O,1.700000X1.700000*%
%ADD12C,1.700000*%
%ADD13C,1.450000*%
%ADD14RoundRect,0.250001X-1.099999X-1.099999X1.099999X-1.099999X1.099999X1.099999X-1.099999X1.099999X0*%
%ADD15C,2.700000*%
%ADD16RoundRect,0.250001X1.099999X1.099999X-1.099999X1.099999X-1.099999X-1.099999X1.099999X-1.099999X0*%
%ADD17C,2.500000*%
%ADD18RoundRect,0.250000X-0.600000X-0.675000X0.600000X-0.675000X0.600000X0.675000X-0.600000X0.675000X0*%
%ADD19O,1.700000X1.850000*%
%ADD20RoundRect,0.250000X0.600000X0.675000X-0.600000X0.675000X-0.600000X-0.675000X0.600000X-0.675000X0*%
%ADD21R,1.665000X1.665000*%
%ADD22C,1.665000*%
%ADD23C,1.400000*%
%ADD24C,10.000000*%
G04 APERTURE END LIST*
D10*
%TO.C,J10*%
X138270000Y-79190000D03*
D11*
X138270000Y-81730000D03*
X138270000Y-84270000D03*
X138270000Y-86810000D03*
%TD*%
D10*
%TO.C,J9*%
X144760000Y-73660000D03*
D11*
X147300000Y-73660000D03*
X149840000Y-73660000D03*
X152380000Y-73660000D03*
X154920000Y-73660000D03*
X157460000Y-73660000D03*
X160000000Y-73660000D03*
X162540000Y-73660000D03*
X165080000Y-73660000D03*
X167620000Y-73660000D03*
X170160000Y-73660000D03*
X172700000Y-73660000D03*
D12*
X144760000Y-93980000D03*
D11*
X147300000Y-93980000D03*
X149840000Y-93980000D03*
X152380000Y-93980000D03*
X154920000Y-93980000D03*
X157460000Y-93980000D03*
X160000000Y-93980000D03*
X162540000Y-93980000D03*
X165080000Y-93980000D03*
X167620000Y-93980000D03*
X170160000Y-93980000D03*
X172700000Y-93980000D03*
%TD*%
D13*
%TO.C,J3*%
X149702500Y-36890000D03*
D14*
X151202500Y-40290000D03*
D15*
X155162500Y-40290000D03*
X159122500Y-40290000D03*
%TD*%
D13*
%TO.C,J2*%
X175417500Y-57090000D03*
D16*
X173917500Y-53690000D03*
D15*
X169957500Y-53690000D03*
X165997500Y-53690000D03*
%TD*%
D13*
%TO.C,J1*%
X155097500Y-57090000D03*
D16*
X153597500Y-53690000D03*
D15*
X149637500Y-53690000D03*
X145677500Y-53690000D03*
%TD*%
D17*
%TO.C,H4*%
X100000000Y-77500000D03*
%TD*%
D18*
%TO.C,J6*%
X147460000Y-107500000D03*
D19*
X149960000Y-107500000D03*
X152460000Y-107500000D03*
X154960000Y-107500000D03*
%TD*%
D18*
%TO.C,Oxyzen_Sensor_2*%
X151200000Y-117500000D03*
D19*
X153700000Y-117500000D03*
X156200000Y-117500000D03*
X158700000Y-117500000D03*
%TD*%
D20*
%TO.C,J5*%
X173930000Y-62850000D03*
D19*
X171430000Y-62850000D03*
X168930000Y-62850000D03*
X166430000Y-62850000D03*
%TD*%
D21*
%TO.C,J8*%
X115590000Y-102110000D03*
D22*
X113050000Y-102110000D03*
X115590000Y-99570000D03*
X113050000Y-99570000D03*
X115590000Y-97030000D03*
X113050000Y-97030000D03*
X115590000Y-94490000D03*
X113050000Y-94490000D03*
X115590000Y-91950000D03*
X113050000Y-91950000D03*
X115590000Y-89410000D03*
X113050000Y-89410000D03*
X115590000Y-86870000D03*
X113050000Y-86870000D03*
X115590000Y-84330000D03*
X113050000Y-84330000D03*
X115590000Y-81790000D03*
X113050000Y-81790000D03*
X115590000Y-79250000D03*
X113050000Y-79250000D03*
X115590000Y-76710000D03*
X113050000Y-76710000D03*
X115590000Y-74170000D03*
X113050000Y-74170000D03*
X115590000Y-71630000D03*
X113050000Y-71630000D03*
X115590000Y-69090000D03*
X113050000Y-69090000D03*
X115590000Y-66550000D03*
X113050000Y-66550000D03*
X115590000Y-64010000D03*
X113050000Y-64010000D03*
X115590000Y-61470000D03*
X113050000Y-61470000D03*
X115590000Y-58930000D03*
X113050000Y-58930000D03*
X115590000Y-56390000D03*
X113050000Y-56390000D03*
X115590000Y-53850000D03*
X113050000Y-53850000D03*
D23*
X114010000Y-106980000D03*
X137010000Y-106980000D03*
X137010000Y-48980000D03*
X114010000Y-48980000D03*
%TD*%
D20*
%TO.C,J4*%
X153610000Y-62850000D03*
D19*
X151110000Y-62850000D03*
X148610000Y-62850000D03*
X146110000Y-62850000D03*
%TD*%
D18*
%TO.C,Oxyzen_Sensor_1*%
X127460000Y-117500000D03*
D19*
X129960000Y-117500000D03*
X132460000Y-117500000D03*
X134960000Y-117500000D03*
%TD*%
D17*
%TO.C,H2*%
X185000000Y-77500000D03*
%TD*%
D18*
%TO.C,J7*%
X163700000Y-107500000D03*
D19*
X166200000Y-107500000D03*
X168700000Y-107500000D03*
X171200000Y-107500000D03*
%TD*%
D17*
%TO.C,H3*%
X142500000Y-120000000D03*
%TD*%
%TO.C,H1*%
X142500000Y-35000000D03*
%TD*%
D24*
%TO.C,H5*%
X133500000Y-37500000D03*
%TD*%
D12*
%TO.C,Rs232_to_ttl1*%
X131064000Y-70164000D03*
D11*
X128524000Y-70164000D03*
X125984000Y-70164000D03*
X123444000Y-70164000D03*
X123444000Y-47304000D03*
X125984000Y-47304000D03*
X128524000Y-47304000D03*
D10*
X131064000Y-47304000D03*
%TD*%
D12*
%TO.C,Rs232_to_ttl2*%
X131064000Y-104200000D03*
D11*
X128524000Y-104200000D03*
X125984000Y-104200000D03*
X123444000Y-104200000D03*
X123444000Y-81340000D03*
X125984000Y-81340000D03*
X128524000Y-81340000D03*
D10*
X131064000Y-81340000D03*
%TD*%
M02*
