M48
; DRILL file {KiCad (6.0.4)} date Mon May  2 15:33:17 2022
; FORMAT={-:-/ absolute / inch / decimal}
; #@! TF.CreationDate,2022-05-02T15:33:17+09:00
; #@! TF.GenerationSoftware,Kicad,Pcbnew,(6.0.4)
; #@! TF.FileFunction,Plated,1,2,PTH
FMAT,2
INCH
; #@! TA.AperFunction,Plated,PTH,ViaDrill
T1C0.0157
; #@! TA.AperFunction,Plated,PTH,ComponentDrill
T2C0.0335
; #@! TA.AperFunction,Plated,PTH,ComponentDrill
T3C0.0394
; #@! TA.AperFunction,Plated,PTH,ComponentDrill
T4C0.0437
; #@! TA.AperFunction,Plated,PTH,ComponentDrill
T5C0.0669
; #@! TA.AperFunction,Plated,PTH,ComponentDrill
T6C0.1102
%
G90
G05
T1
X4.23Y-2.15
X4.23Y-2.38
X4.23Y-2.65
X4.23Y-2.89
X4.23Y-3.15
X4.23Y-3.43
X4.23Y-3.66
X4.23Y-3.88
X4.23Y-4.09
X4.4Y-4.15
X4.55Y-4.3
X4.55Y-4.43
X4.65Y-4.43
X4.77Y-4.43
X4.825Y-2.15
X4.825Y-2.4
X4.89Y-4.43
X5.0Y-2.15
X5.0Y-2.4
X5.06Y-4.43
X5.187Y-2.1457
X5.187Y-2.4016
X5.225Y-3.025
X5.225Y-3.3
X5.325Y-4.075
X5.3543Y-3.0709
X5.3543Y-3.3
X5.374Y-2.15
X5.374Y-2.4
X5.374Y-2.6969
X5.6Y-3.3
X5.6Y-3.5
X5.6299Y-3.8583
X5.6299Y-3.975
X5.65Y-2.625
X5.7382Y-2.7165
X5.8Y-3.075
X5.8Y-3.5
X5.875Y-2.625
X5.9Y-3.075
X5.9Y-3.5
X5.9646Y-2.7165
X6.0Y-2.4
X6.0Y-3.075
X6.0Y-3.5
X6.0Y-4.125
X6.1Y-3.075
X6.1Y-3.5
X6.1614Y-3.8583
X6.1614Y-3.95
X6.2106Y-2.4016
X6.2402Y-2.7165
X6.2598Y-1.7913
X6.2992Y-2.4902
X6.3Y-2.4
X6.3Y-3.075
X6.3Y-3.5
X6.3386Y-1.7323
X6.3386Y-1.7913
X6.3583Y-2.7165
X6.3878Y-2.4016
X6.3878Y-2.4902
X6.3878Y-2.5886
X6.4Y-3.075
X6.4Y-3.5
X6.4075Y-1.7323
X6.4075Y-1.7913
X6.4075Y-1.9193
X6.45Y-3.8
X6.4764Y-1.7323
X6.4764Y-1.7913
X6.4764Y-1.9193
X6.5Y-3.075
X6.5Y-3.5
X6.5453Y-1.9193
X6.565Y-2.7264
X6.6Y-3.075
X6.6Y-3.5
X6.6142Y-1.9193
X6.75Y-2.725
X6.775Y-3.075
X6.775Y-3.3
X6.9488Y-2.9035
X6.95Y-2.7264
X6.95Y-3.0709
T2
X5.0181Y-4.626
X5.1165Y-4.626
X5.215Y-4.626
X5.3134Y-4.626
X5.7524Y-2.4744
X5.8055Y-4.2323
X5.8508Y-2.4744
X5.9039Y-4.2323
X5.9492Y-2.4744
X5.9528Y-4.626
X6.0024Y-4.2323
X6.0476Y-2.4744
X6.0512Y-4.626
X6.1008Y-4.2323
X6.1496Y-4.626
X6.248Y-4.626
X6.4449Y-4.2323
X6.5433Y-4.2323
X6.5524Y-2.4744
X6.6417Y-4.2323
X6.6508Y-2.4744
X6.7402Y-4.2323
X6.7492Y-2.4744
X6.8476Y-2.4744
T3
X4.86Y-1.8624
X4.86Y-2.7624
X4.86Y-3.2024
X4.86Y-4.1024
X4.96Y-1.8624
X4.96Y-2.7624
X4.96Y-3.2024
X4.96Y-4.1024
X5.06Y-1.8624
X5.06Y-2.7624
X5.06Y-3.2024
X5.06Y-4.1024
X5.16Y-1.8624
X5.16Y-2.7624
X5.16Y-3.2024
X5.16Y-4.1024
X5.4437Y-3.1177
X5.4437Y-3.2177
X5.4437Y-3.3177
X5.4437Y-3.4177
X5.6992Y-2.9
X5.6992Y-3.7
X5.7992Y-2.9
X5.7992Y-3.7
X5.8992Y-2.9
X5.8992Y-3.7
X5.9992Y-2.9
X5.9992Y-3.7
X6.0992Y-2.9
X6.0992Y-3.7
X6.1992Y-2.9
X6.1992Y-3.7
X6.2992Y-2.9
X6.2992Y-3.7
X6.3992Y-2.9
X6.3992Y-3.7
X6.4992Y-2.9
X6.4992Y-3.7
X6.5992Y-2.9
X6.5992Y-3.7
X6.6992Y-2.9
X6.6992Y-3.7
X6.7992Y-2.9
X6.7992Y-3.7
T4
X4.4508Y-2.1201
X4.4508Y-2.2201
X4.4508Y-2.3201
X4.4508Y-2.4201
X4.4508Y-2.5201
X4.4508Y-2.6201
X4.4508Y-2.7201
X4.4508Y-2.8201
X4.4508Y-2.9201
X4.4508Y-3.0201
X4.4508Y-3.1201
X4.4508Y-3.2201
X4.4508Y-3.3201
X4.4508Y-3.4201
X4.4508Y-3.5201
X4.4508Y-3.6201
X4.4508Y-3.7201
X4.4508Y-3.8201
X4.4508Y-3.9201
X4.4508Y-4.0201
X4.5508Y-2.1201
X4.5508Y-2.2201
X4.5508Y-2.3201
X4.5508Y-2.4201
X4.5508Y-2.5201
X4.5508Y-2.6201
X4.5508Y-2.7201
X4.5508Y-2.8201
X4.5508Y-2.9201
X4.5508Y-3.0201
X4.5508Y-3.1201
X4.5508Y-3.2201
X4.5508Y-3.3201
X4.5508Y-3.4201
X4.5508Y-3.5201
X4.5508Y-3.6201
X4.5508Y-3.7201
X4.5508Y-3.8201
X4.5508Y-3.9201
X4.5508Y-4.0201
T5
X5.7353Y-2.1138
X5.8912Y-2.1138
X5.9529Y-1.5862
X6.0471Y-2.1138
X6.1088Y-1.5862
X6.2647Y-1.5862
X6.5353Y-2.1138
X6.6912Y-2.1138
X6.8471Y-2.1138
T6
X4.4886Y-1.9283
X4.4886Y-4.2118
X5.3941Y-1.9283
X5.3941Y-4.2118
T0
M30
